<mxfile host="app.diagrams.net" modified="2021-09-03T15:48:16.234Z" agent="5.0 (Windows NT 10.0; Win64; x64) AppleWebKit/537.36 (KHTML, like Gecko) Chrome/92.0.4515.159 Safari/537.36" etag="leWfBeZfnVNwBc5T1Awz" version="15.0.6" type="github">
  <diagram id="ZPYUfRTyhpT0wUhcNFgH" name="Page-1">
    <mxGraphModel dx="2062" dy="1154" grid="1" gridSize="10" guides="1" tooltips="1" connect="1" arrows="1" fold="1" page="1" pageScale="1" pageWidth="827" pageHeight="1169" math="0" shadow="0">
      <root>
        <mxCell id="0" />
        <mxCell id="1" parent="0" />
        <mxCell id="BbAh6FNeoL1--abQjlkF-1" value="Train Ais" style="rounded=1;whiteSpace=wrap;html=1;" vertex="1" parent="1">
          <mxGeometry x="230" y="140" width="120" height="60" as="geometry" />
        </mxCell>
        <mxCell id="BbAh6FNeoL1--abQjlkF-2" value="Play Against Model" style="rounded=1;whiteSpace=wrap;html=1;" vertex="1" parent="1">
          <mxGeometry x="390" y="140" width="120" height="60" as="geometry" />
        </mxCell>
        <mxCell id="BbAh6FNeoL1--abQjlkF-3" value="Test Model" style="rounded=1;whiteSpace=wrap;html=1;" vertex="1" parent="1">
          <mxGeometry x="550" y="140" width="120" height="60" as="geometry" />
        </mxCell>
        <mxCell id="BbAh6FNeoL1--abQjlkF-5" style="edgeStyle=orthogonalEdgeStyle;rounded=0;orthogonalLoop=1;jettySize=auto;html=1;entryX=0.5;entryY=0;entryDx=0;entryDy=0;" edge="1" parent="1" source="BbAh6FNeoL1--abQjlkF-4" target="BbAh6FNeoL1--abQjlkF-6">
          <mxGeometry relative="1" as="geometry">
            <mxPoint x="270" y="330" as="targetPoint" />
          </mxGeometry>
        </mxCell>
        <mxCell id="BbAh6FNeoL1--abQjlkF-4" value="Train Ais" style="rounded=1;whiteSpace=wrap;html=1;" vertex="1" parent="1">
          <mxGeometry x="210" y="270" width="120" height="60" as="geometry" />
        </mxCell>
        <mxCell id="BbAh6FNeoL1--abQjlkF-7" style="edgeStyle=orthogonalEdgeStyle;rounded=0;orthogonalLoop=1;jettySize=auto;html=1;" edge="1" parent="1" source="BbAh6FNeoL1--abQjlkF-6">
          <mxGeometry relative="1" as="geometry">
            <mxPoint x="270" y="590" as="targetPoint" />
          </mxGeometry>
        </mxCell>
        <mxCell id="BbAh6FNeoL1--abQjlkF-6" value="Initialise Agents" style="rounded=0;whiteSpace=wrap;html=1;" vertex="1" parent="1">
          <mxGeometry x="210" y="440" width="120" height="60" as="geometry" />
        </mxCell>
        <mxCell id="BbAh6FNeoL1--abQjlkF-9" style="edgeStyle=orthogonalEdgeStyle;rounded=0;orthogonalLoop=1;jettySize=auto;html=1;" edge="1" parent="1" source="BbAh6FNeoL1--abQjlkF-8">
          <mxGeometry relative="1" as="geometry">
            <mxPoint x="270" y="740" as="targetPoint" />
          </mxGeometry>
        </mxCell>
        <mxCell id="BbAh6FNeoL1--abQjlkF-8" value="Agents Performance&lt;br&gt;Assessed" style="rounded=0;whiteSpace=wrap;html=1;" vertex="1" parent="1">
          <mxGeometry x="210" y="591" width="120" height="60" as="geometry" />
        </mxCell>
        <mxCell id="BbAh6FNeoL1--abQjlkF-11" style="edgeStyle=orthogonalEdgeStyle;rounded=0;orthogonalLoop=1;jettySize=auto;html=1;" edge="1" parent="1" source="BbAh6FNeoL1--abQjlkF-10">
          <mxGeometry relative="1" as="geometry">
            <mxPoint x="270" y="890" as="targetPoint" />
          </mxGeometry>
        </mxCell>
        <mxCell id="BbAh6FNeoL1--abQjlkF-10" value="Cull Ais" style="rounded=0;whiteSpace=wrap;html=1;" vertex="1" parent="1">
          <mxGeometry x="210" y="740" width="120" height="60" as="geometry" />
        </mxCell>
        <mxCell id="BbAh6FNeoL1--abQjlkF-17" style="edgeStyle=orthogonalEdgeStyle;rounded=0;orthogonalLoop=1;jettySize=auto;html=1;exitX=0.5;exitY=1;exitDx=0;exitDy=0;entryX=0.5;entryY=0;entryDx=0;entryDy=0;" edge="1" parent="1" source="BbAh6FNeoL1--abQjlkF-12" target="BbAh6FNeoL1--abQjlkF-16">
          <mxGeometry relative="1" as="geometry" />
        </mxCell>
        <mxCell id="BbAh6FNeoL1--abQjlkF-12" value="Populate new generation" style="rounded=0;whiteSpace=wrap;html=1;" vertex="1" parent="1">
          <mxGeometry x="210" y="890" width="120" height="60" as="geometry" />
        </mxCell>
        <mxCell id="BbAh6FNeoL1--abQjlkF-18" style="edgeStyle=orthogonalEdgeStyle;rounded=0;orthogonalLoop=1;jettySize=auto;html=1;" edge="1" parent="1" source="BbAh6FNeoL1--abQjlkF-16">
          <mxGeometry relative="1" as="geometry">
            <mxPoint x="440" y="1060" as="targetPoint" />
          </mxGeometry>
        </mxCell>
        <mxCell id="BbAh6FNeoL1--abQjlkF-20" style="edgeStyle=orthogonalEdgeStyle;rounded=0;orthogonalLoop=1;jettySize=auto;html=1;entryX=0;entryY=0.5;entryDx=0;entryDy=0;" edge="1" parent="1" source="BbAh6FNeoL1--abQjlkF-16" target="BbAh6FNeoL1--abQjlkF-6">
          <mxGeometry relative="1" as="geometry">
            <mxPoint x="270" y="1160" as="targetPoint" />
            <Array as="points">
              <mxPoint x="80" y="1060" />
              <mxPoint x="80" y="470" />
            </Array>
          </mxGeometry>
        </mxCell>
        <mxCell id="BbAh6FNeoL1--abQjlkF-16" value="Is Finished Training" style="rhombus;whiteSpace=wrap;html=1;" vertex="1" parent="1">
          <mxGeometry x="230" y="1020" width="80" height="80" as="geometry" />
        </mxCell>
        <mxCell id="BbAh6FNeoL1--abQjlkF-19" value="Yes" style="text;html=1;align=center;verticalAlign=middle;resizable=0;points=[];autosize=1;strokeColor=none;fillColor=none;" vertex="1" parent="1">
          <mxGeometry x="360" y="1040" width="40" height="20" as="geometry" />
        </mxCell>
        <mxCell id="BbAh6FNeoL1--abQjlkF-21" value="No" style="text;html=1;align=center;verticalAlign=middle;resizable=0;points=[];autosize=1;strokeColor=none;fillColor=none;" vertex="1" parent="1">
          <mxGeometry x="150" y="1040" width="30" height="20" as="geometry" />
        </mxCell>
        <mxCell id="BbAh6FNeoL1--abQjlkF-30" style="edgeStyle=orthogonalEdgeStyle;rounded=0;orthogonalLoop=1;jettySize=auto;html=1;entryX=0;entryY=0.5;entryDx=0;entryDy=0;" edge="1" parent="1" source="BbAh6FNeoL1--abQjlkF-22" target="BbAh6FNeoL1--abQjlkF-23">
          <mxGeometry relative="1" as="geometry">
            <mxPoint x="500" y="310" as="targetPoint" />
          </mxGeometry>
        </mxCell>
        <mxCell id="BbAh6FNeoL1--abQjlkF-40" style="edgeStyle=orthogonalEdgeStyle;rounded=0;orthogonalLoop=1;jettySize=auto;html=1;exitX=1;exitY=1;exitDx=0;exitDy=0;entryX=0;entryY=0.5;entryDx=0;entryDy=0;" edge="1" parent="1" source="BbAh6FNeoL1--abQjlkF-22" target="BbAh6FNeoL1--abQjlkF-31">
          <mxGeometry relative="1" as="geometry">
            <Array as="points">
              <mxPoint x="860" y="1090" />
              <mxPoint x="860" y="310" />
            </Array>
          </mxGeometry>
        </mxCell>
        <mxCell id="BbAh6FNeoL1--abQjlkF-22" value="Save Model" style="rounded=0;whiteSpace=wrap;html=1;" vertex="1" parent="1">
          <mxGeometry x="440" y="1030" width="120" height="60" as="geometry" />
        </mxCell>
        <mxCell id="BbAh6FNeoL1--abQjlkF-24" style="edgeStyle=orthogonalEdgeStyle;rounded=0;orthogonalLoop=1;jettySize=auto;html=1;" edge="1" parent="1" source="BbAh6FNeoL1--abQjlkF-23">
          <mxGeometry relative="1" as="geometry">
            <mxPoint x="730" y="440" as="targetPoint" />
          </mxGeometry>
        </mxCell>
        <mxCell id="BbAh6FNeoL1--abQjlkF-23" value="Play Against Model" style="rounded=1;whiteSpace=wrap;html=1;" vertex="1" parent="1">
          <mxGeometry x="670" y="280" width="120" height="60" as="geometry" />
        </mxCell>
        <mxCell id="BbAh6FNeoL1--abQjlkF-26" style="edgeStyle=orthogonalEdgeStyle;rounded=0;orthogonalLoop=1;jettySize=auto;html=1;" edge="1" parent="1" source="BbAh6FNeoL1--abQjlkF-25">
          <mxGeometry relative="1" as="geometry">
            <mxPoint x="730" y="590" as="targetPoint" />
          </mxGeometry>
        </mxCell>
        <mxCell id="BbAh6FNeoL1--abQjlkF-25" value="Load Model" style="rounded=0;whiteSpace=wrap;html=1;" vertex="1" parent="1">
          <mxGeometry x="670" y="440" width="120" height="60" as="geometry" />
        </mxCell>
        <mxCell id="BbAh6FNeoL1--abQjlkF-28" style="edgeStyle=orthogonalEdgeStyle;rounded=0;orthogonalLoop=1;jettySize=auto;html=1;" edge="1" parent="1" source="BbAh6FNeoL1--abQjlkF-27">
          <mxGeometry relative="1" as="geometry">
            <mxPoint x="730" y="750" as="targetPoint" />
          </mxGeometry>
        </mxCell>
        <mxCell id="BbAh6FNeoL1--abQjlkF-27" value="Player Races against Model" style="rounded=0;whiteSpace=wrap;html=1;" vertex="1" parent="1">
          <mxGeometry x="670" y="591" width="120" height="60" as="geometry" />
        </mxCell>
        <mxCell id="BbAh6FNeoL1--abQjlkF-29" value="Display Results" style="rounded=0;whiteSpace=wrap;html=1;" vertex="1" parent="1">
          <mxGeometry x="670" y="750" width="120" height="60" as="geometry" />
        </mxCell>
        <mxCell id="BbAh6FNeoL1--abQjlkF-33" style="edgeStyle=orthogonalEdgeStyle;rounded=0;orthogonalLoop=1;jettySize=auto;html=1;entryX=0.5;entryY=0;entryDx=0;entryDy=0;" edge="1" parent="1" source="BbAh6FNeoL1--abQjlkF-31" target="BbAh6FNeoL1--abQjlkF-32">
          <mxGeometry relative="1" as="geometry" />
        </mxCell>
        <mxCell id="BbAh6FNeoL1--abQjlkF-31" value="Test Model" style="rounded=1;whiteSpace=wrap;html=1;" vertex="1" parent="1">
          <mxGeometry x="960" y="280" width="120" height="60" as="geometry" />
        </mxCell>
        <mxCell id="BbAh6FNeoL1--abQjlkF-34" style="edgeStyle=orthogonalEdgeStyle;rounded=0;orthogonalLoop=1;jettySize=auto;html=1;" edge="1" parent="1" source="BbAh6FNeoL1--abQjlkF-32">
          <mxGeometry relative="1" as="geometry">
            <mxPoint x="1020" y="590" as="targetPoint" />
          </mxGeometry>
        </mxCell>
        <mxCell id="BbAh6FNeoL1--abQjlkF-32" value="Load Model" style="rounded=0;whiteSpace=wrap;html=1;" vertex="1" parent="1">
          <mxGeometry x="960" y="440" width="120" height="60" as="geometry" />
        </mxCell>
        <mxCell id="BbAh6FNeoL1--abQjlkF-36" style="edgeStyle=orthogonalEdgeStyle;rounded=0;orthogonalLoop=1;jettySize=auto;html=1;" edge="1" parent="1" source="BbAh6FNeoL1--abQjlkF-35">
          <mxGeometry relative="1" as="geometry">
            <mxPoint x="1020" y="760" as="targetPoint" />
          </mxGeometry>
        </mxCell>
        <mxCell id="BbAh6FNeoL1--abQjlkF-35" value="Player Chooses Two Points" style="rounded=0;whiteSpace=wrap;html=1;" vertex="1" parent="1">
          <mxGeometry x="960" y="591" width="120" height="59" as="geometry" />
        </mxCell>
        <mxCell id="BbAh6FNeoL1--abQjlkF-38" style="edgeStyle=orthogonalEdgeStyle;rounded=0;orthogonalLoop=1;jettySize=auto;html=1;" edge="1" parent="1" source="BbAh6FNeoL1--abQjlkF-37">
          <mxGeometry relative="1" as="geometry">
            <mxPoint x="1020" y="920" as="targetPoint" />
          </mxGeometry>
        </mxCell>
        <mxCell id="BbAh6FNeoL1--abQjlkF-37" value="Dijkstras Pathfinding is used to find optimal route" style="rounded=0;whiteSpace=wrap;html=1;" vertex="1" parent="1">
          <mxGeometry x="960" y="760" width="120" height="60" as="geometry" />
        </mxCell>
        <mxCell id="BbAh6FNeoL1--abQjlkF-39" value="Cars Drive between points" style="rounded=0;whiteSpace=wrap;html=1;" vertex="1" parent="1">
          <mxGeometry x="960" y="920" width="120" height="60" as="geometry" />
        </mxCell>
      </root>
    </mxGraphModel>
  </diagram>
</mxfile>
